Simulation
nRows=20
nColumns=15
endheader
time  TH_x TH_y TH_z SC_y  SC_z  SC_x  AC_y  AC_z  AC_x  GH_y  GH_z  GH_yy  EL_x  PS_y
2.8725  0.000000  0.000000  0.000000  -34.873001996218484  0.10039543465473978  -23.90193419541378  37.807508770967694  22.129920117650528  15.31872375672236  38.785346324089055  7.50783707679147  -31.653271890354517  14.058323004029951  120.000000
2.92995  0.000000  0.000000  0.000000  -34.90431754524318  0.080810549742603  -23.104237577875974  38.27861604636604  22.095903132969646  14.899749663322364  49.13423124677608  6.504383163056396  -39.216193215015636  14.421697264792003  120.000000
2.9874  0.000000  0.000000  0.000000  -35.02602958049088  0.1423087614764263  -22.0975856045772  38.762787947344364  21.949811368476436  14.358832504773622  61.29661236737071  5.928355545798616  -49.02932373450911  14.868598854820513  120.000000
3.0448500000000003  0.000000  0.000000  0.000000  -35.210443653583916  0.28692976282839777  -20.93266625045527  39.22181281193676  21.688729975128837  13.725767625029542  73.73220450492585  5.736989222737188  -59.590296788670194  15.354401871516373  120.000000
3.1023  0.000000  0.000000  0.000000  -35.42583945340196  0.506641264855353  -19.665142320413498  39.63625204494586  21.322773982047952  13.03007057340944  84.76166786272415  5.8274192854923665  -69.2026419402447  15.836667900680263  120.000000
3.15975  0.000000  0.000000  0.000000  -35.644952955273084  0.7832402135738202  -18.35101819908013  40.00242855296168  20.87268902604085  12.302160216222292  93.50770089556121  6.071177064198546  -76.93407874470235  16.28565868492156  120.000000
3.2172  0.000000  0.000000  0.000000  -35.84732452287742  1.089184510663583  -17.038690691294217  40.325572453797086  20.362887597071857  11.57237366985233  99.92637643892883  6.358001235749219  -82.66254040551291  16.691690223506022  120.000000
3.2746500000000003  0.000000  0.000000  0.000000  -36.015734713263505  1.3966480232357796  -15.767432057799876  40.619335797991795  19.816492103764073  10.864166295447442  104.36527435998833  6.617064107857488  -86.64762187110172  17.06279662571256  120.000000
3.3321  0.000000  0.000000  0.000000  -36.13655042009681  1.6832531883110744  -14.568209609317622  40.900048288512096  19.252144205500876  10.192571168219764  107.24509582528965  6.815182433513556  -89.22463666156402  17.415515408571665  120.000000
3.38955  0.000000  0.000000  0.000000  -36.20325148552624  1.9313536074863988  -13.462280392295074  41.17798469227768  18.68297266386685  9.56698310839774  108.9389929737255  6.945708153101901  -90.69525823438927  17.76465241604627  120.000000
3.447  0.000000  0.000000  0.000000  -36.21839819664291  2.132433774263064  -12.461826777661345  41.45691902850852  18.118060480404104  8.992678069127715  109.74417210622492  7.020692694886245  -91.30681599427166  18.119013247968493  120.000000
3.5044500000000003  0.000000  0.000000  0.000000  -36.19260228150577  2.2854388227739695  -11.571736535095795  41.734843048704754  17.56544329441662  8.471675181768754  109.8807652763209  7.061459437916963  -91.25187984679059  18.48103094692825  120.000000
3.5619  0.000000  0.000000  0.000000  -36.14028612102551  2.3936385783948655  -10.791279335169166  42.00374471190406  17.03277750997028  8.005107956023648  109.51287313690115  7.0889160746006565  -90.68389350508244  18.848810688893657  120.000000
3.61935  0.000000  0.000000  0.000000  -36.074180424283576  2.4640843234323375  -10.117378623657903  42.2533229467627  16.527401560335232  7.592878460917859  108.76476267003167  7.119567290544929  -89.7254084432285  19.21953987693736  120.000000
3.6768  0.000000  0.000000  0.000000  -36.00136739991155  2.505728860722852  -9.547533356867214  42.47378206586638  16.055914248640978  7.232563116331906  107.72590086585897  7.164859110778081  -88.46683752504708  19.591619959052306  120.000000
3.7342500000000003  0.000000  0.000000  0.000000  -35.92288897213419  2.527211016845928  -9.080797420381286  42.655146697818935  15.622721921403238  6.919932311977763  106.44911611074997  7.231165923568218  -86.96082301553042  19.96494814368157  120.000000
3.7917  0.000000  0.000000  0.000000  -35.835799234269764  2.5339375344646013  -8.717556814748342  42.785409386906665  15.229079723460341  6.6499172883745485  104.94309529829356  7.319444661995411  -85.21322065787324  20.34001026831564  120.000000
3.84915  0.000000  0.000000  0.000000  -35.73340529225744  2.5279283753602027  -8.459451258285654  42.853752666779954  14.873483575760917  6.4161226749301665  103.15864060027106  7.427891485603513  -83.16864351780103  20.71707544614315  120.000000
3.9066  0.000000  0.000000  0.000000  -35.606131604164034  2.5074335333885833  -8.30870438236341  42.852786863245576  14.552575083544898  6.211134081222242  100.98258239365266  7.555068174701993  -80.70463582820793  21.095357334426364  120.000000
3.9640500000000003  0.000000  0.000000  0.000000  -35.4428803656169  2.467036207848873  -8.26765896884022  42.778513451295  14.261516865431012  6.028071779855922  98.24661344797131  7.702697185509902  -77.64222032598434  21.4723960926674  120.000000
